<?xml version="1.0" encoding="UTF-8"?><svg id="uuid-691d8548-0515-4795-b1ce-a8b86fd611db" xmlns="http://www.w3.org/2000/svg" viewBox="0 0 12 21"><defs><style>.uuid-ec3db316-eef2-4c54-b6fb-5e03e04ca20e{fill:#fff;}</style></defs><path d="M11,10h-1v-1h-1v-1h-1v-1h-1v-.96s-.03-.03-.04-.04h-.96v-1h-1v-1h-1v-1h-1v-1h-1v-1h-1V0H0v17h2v-1h1v-1h1v-1h1v2h1v2h1v1h2v-1h1v-2h-1v-2h-1v-1h4v-2h-1v-1Z"/><path class="uuid-ec3db316-eef2-4c54-b6fb-5e03e04ca20e" d="M1,2h1v1h1v1h1v1h1v1h1v1h1v1h1v1h1v1h1v1h1v1h-4v2h1v2h1v2h-2v-2h-1v-2h-1v-1h-1v1h-1v1h-1v1h-1"/></svg>