<svg xmlns="http://www.w3.org/2000/svg" xmlns:xlink="http://www.w3.org/1999/xlink" version="1.1" x="0px" y="0px" viewBox="0 0 100 100" xml:space="preserve"><path d="M55.9,13.2c0.2-0.6,0.3-1.3,0.3-2C56.3,7.8,53.4,5,50,5s-6.3,2.8-6.3,6.3c0,0.7,0.1,1.4,0.3,2C27.6,17.2,15,37.5,15,62  c0,18.2,15.7,33,35,33s35-14.8,35-33C85,37.5,72.4,17.2,55.9,13.2z M50,8.8c1.4,0,2.5,1.1,2.5,2.5c0,1.4-1.1,2.5-2.5,2.5  s-2.5-1.1-2.5-2.5C47.5,9.9,48.6,8.8,50,8.8z M40,87.5c-1.4,0-2.5-1.1-2.5-2.5c0-1.4,1.1-2.5,2.5-2.5s2.5,1.1,2.5,2.5  C42.5,86.4,41.4,87.5,40,87.5z M50,90c-1.4,0-2.5-1.1-2.5-2.5c0-1.4,1.1-2.5,2.5-2.5s2.5,1.1,2.5,2.5C52.5,88.9,51.4,90,50,90z   M60,87.5c-1.4,0-2.5-1.1-2.5-2.5c0-1.4,1.1-2.5,2.5-2.5s2.5,1.1,2.5,2.5C62.5,86.4,61.4,87.5,60,87.5z M67.5,70  c0,1.4-1.1,2.5-2.5,2.5H35c-1.4,0-2.5-1.1-2.5-2.5V40c0-1.4,1.1-2.5,2.5-2.5h30c1.4,0,2.5,1.1,2.5,2.5V70z"/><polygon points="58.8,47.5 56.3,47.5 56.3,45 53.8,45 53.8,47.5 51.3,47.5 51.3,50 48.8,50 48.8,47.5 46.3,47.5 46.3,45 43.8,45   43.8,47.5 41.3,47.5 41.3,50 38.8,50 38.8,55 41.3,55 41.3,57.5 43.8,57.5 43.8,60 46.3,60 46.3,62.5 48.8,62.5 48.8,65 51.3,65   51.3,62.5 53.8,62.5 53.8,60 56.3,60 56.3,57.5 58.8,57.5 58.8,55 61.3,55 61.3,50 58.8,50 "/></svg>